<svg width="1440" height="400" viewBox="0 0 1440 400" fill="none" xmlns="http://www.w3.org/2000/svg">
  <rect width="1440" height="400" fill="transparent"/>
  <path d="M-40 248L10 220L40 240L70 200L90 220L140 200L170 250L210 200L250 260L300 180L340 240L380 220L430 260L470 200L520 280L560 210L600 250L640 200L690 240L750 190L790 250L840 210L880 260L930 210L970 250L1020 200L1060 240L1100 220L1150 260L1190 230L1240 260L1290 210L1340 260L1390 220L1450 260V400H-40V248Z" fill="#0B1E16" opacity="0.8"/>
  <path d="M-40 280L0 260L40 280L70 240L120 260L160 240L200 280L240 250L280 290L320 250L360 300L400 260L450 300L490 250L540 300L580 260L620 290L660 240L700 300L740 260L780 300L820 250L860 300L900 260L940 300L980 250L1020 300L1060 260L1100 300L1140 250L1180 300L1220 260L1260 300L1300 260L1340 300L1380 260L1440 300V400H-40V280Z" fill="#07140F" opacity="0.85"/>
</svg>
